# xmcd
#
# Track frame offsets: 
#        150
#        21753
#        44370
#        62597
#        76794
#        98484
#        118409
#        139675
#        158810
#        159110
#        180326
#        200502
#        226346
#        243480
#        244990
#        245900
#
# Disc length: 3408 seconds
#
# Revision: 0
# Processed by: cddbd v1.5.2PL0 Copyright (c) Steve Scherf et al.
# Submitted via: ExactAudioCopyFreeDBPlugin 1.0
#
DISCID=cb0d4e10
DTITLE=五月天 - 第二人生（末日版）
DYEAR=2011
DGENRE=Pop
TTITLE0=2012
TTITLE1=仓颉
TTITLE2=洗衣机
TTITLE3=歪腰
TTITLE4=干杯
TTITLE5=我不愿 让你一个人
TTITLE6=星空
TTITLE7=三个傻瓜
TTITLE8=末日
TTITLE9=OAOA（丢掉名字性别）
TTITLE10=第二人生
TTITLE11=诺亚方舟
TTITLE12=有些是现在不做 一辈子都不会做了
TTITLE13=Blank Track 20s
TTITLE14=Blank Track 12s
TTITLE15=T 121 3121
EXTD=
EXTT0=
EXTT1=
EXTT2=
EXTT3=
EXTT4=
EXTT5=
EXTT6=
EXTT7=
EXTT8=
EXTT9=
EXTT10=
EXTT11=
EXTT12=
EXTT13=
EXTT14=
EXTT15=
PLAYORDER=
